<mxfile host="app.diagrams.net" modified="2023-09-11T13:26:16.047Z" agent="Mozilla/5.0 (Windows NT 10.0; Win64; x64) AppleWebKit/537.36 (KHTML, like Gecko) Chrome/116.0.0.0 Safari/537.36" etag="XEJkB-va7382X3JqZacs" version="21.7.1" type="device">
  <diagram name="Page-1" id="FqL1D6eqQ3Jrx4kZphLh">
    <mxGraphModel dx="2585" dy="975" grid="1" gridSize="10" guides="1" tooltips="1" connect="1" arrows="1" fold="1" page="1" pageScale="1" pageWidth="850" pageHeight="1100" math="0" shadow="0">
      <root>
        <mxCell id="0" />
        <mxCell id="1" parent="0" />
        <mxCell id="P4LJiY_exPxhlkd3zQ3B-1" value="&lt;font style=&quot;font-size: 14px;&quot; face=&quot;Verdana&quot;&gt;&lt;b&gt;STUDENT&amp;nbsp;&lt;br&gt;MODULE&lt;/b&gt;&lt;/font&gt;" style="ellipse;whiteSpace=wrap;html=1;" parent="1" vertex="1">
          <mxGeometry x="80" y="40" width="130" height="80" as="geometry" />
        </mxCell>
        <mxCell id="P4LJiY_exPxhlkd3zQ3B-2" value="" style="endArrow=classic;html=1;rounded=0;exitX=0.5;exitY=1;exitDx=0;exitDy=0;" parent="1" source="P4LJiY_exPxhlkd3zQ3B-1" edge="1">
          <mxGeometry width="50" height="50" relative="1" as="geometry">
            <mxPoint x="350" y="290" as="sourcePoint" />
            <mxPoint x="145" y="200" as="targetPoint" />
          </mxGeometry>
        </mxCell>
        <mxCell id="P4LJiY_exPxhlkd3zQ3B-4" value="&lt;font style=&quot;font-size: 14px;&quot; face=&quot;Verdana&quot;&gt;&lt;b&gt;STUDENT&lt;br&gt;LOG-IN&lt;/b&gt;&lt;/font&gt;" style="rounded=1;whiteSpace=wrap;html=1;" parent="1" vertex="1">
          <mxGeometry x="80" y="200" width="130" height="60" as="geometry" />
        </mxCell>
        <mxCell id="P4LJiY_exPxhlkd3zQ3B-5" value="&lt;font style=&quot;font-size: 14px;&quot; face=&quot;Verdana&quot;&gt;&lt;b&gt;TEACHER&amp;nbsp;&lt;br&gt;MODULE&lt;/b&gt;&lt;/font&gt;" style="ellipse;whiteSpace=wrap;html=1;" parent="1" vertex="1">
          <mxGeometry x="610" y="40" width="130" height="80" as="geometry" />
        </mxCell>
        <mxCell id="P4LJiY_exPxhlkd3zQ3B-6" value="" style="endArrow=classic;html=1;rounded=0;exitX=0.5;exitY=1;exitDx=0;exitDy=0;" parent="1" edge="1">
          <mxGeometry width="50" height="50" relative="1" as="geometry">
            <mxPoint x="674.23" y="120" as="sourcePoint" />
            <mxPoint x="674.23" y="200" as="targetPoint" />
          </mxGeometry>
        </mxCell>
        <mxCell id="P4LJiY_exPxhlkd3zQ3B-7" value="&lt;font style=&quot;font-size: 14px;&quot; face=&quot;Verdana&quot;&gt;&lt;b&gt;TEACHER&lt;br&gt;LOG-IN&lt;/b&gt;&lt;/font&gt;" style="rounded=1;whiteSpace=wrap;html=1;" parent="1" vertex="1">
          <mxGeometry x="615" y="200" width="120" height="60" as="geometry" />
        </mxCell>
        <mxCell id="P4LJiY_exPxhlkd3zQ3B-9" value="" style="endArrow=classic;html=1;rounded=0;exitX=1;exitY=0.5;exitDx=0;exitDy=0;" parent="1" source="P4LJiY_exPxhlkd3zQ3B-4" edge="1">
          <mxGeometry width="50" height="50" relative="1" as="geometry">
            <mxPoint x="420" y="440" as="sourcePoint" />
            <mxPoint x="320" y="230" as="targetPoint" />
          </mxGeometry>
        </mxCell>
        <mxCell id="P4LJiY_exPxhlkd3zQ3B-10" value="&lt;font style=&quot;font-size: 14px;&quot; face=&quot;Verdana&quot;&gt;&lt;b&gt;SUBMITS&lt;br&gt;ANSWER&lt;br&gt;SHEET&lt;/b&gt;&lt;/font&gt;" style="rounded=1;whiteSpace=wrap;html=1;" parent="1" vertex="1">
          <mxGeometry x="320" y="195" width="150" height="70" as="geometry" />
        </mxCell>
        <mxCell id="P4LJiY_exPxhlkd3zQ3B-11" value="" style="endArrow=classic;html=1;rounded=0;exitX=0.5;exitY=1;exitDx=0;exitDy=0;" parent="1" source="P4LJiY_exPxhlkd3zQ3B-10" edge="1">
          <mxGeometry width="50" height="50" relative="1" as="geometry">
            <mxPoint x="420" y="440" as="sourcePoint" />
            <mxPoint x="395" y="350" as="targetPoint" />
          </mxGeometry>
        </mxCell>
        <mxCell id="P4LJiY_exPxhlkd3zQ3B-12" value="&lt;font face=&quot;Verdana&quot;&gt;&lt;span style=&quot;font-size: 14px;&quot;&gt;&lt;b&gt;TEXT&lt;br&gt;EXTRACTION&lt;br&gt;&lt;/b&gt;&lt;/span&gt;&lt;/font&gt;" style="rounded=1;whiteSpace=wrap;html=1;" parent="1" vertex="1">
          <mxGeometry x="320" y="350" width="150" height="70" as="geometry" />
        </mxCell>
        <mxCell id="P4LJiY_exPxhlkd3zQ3B-14" value="" style="endArrow=classic;html=1;rounded=0;exitX=0.5;exitY=1;exitDx=0;exitDy=0;entryX=0.5;entryY=0;entryDx=0;entryDy=0;" parent="1" target="P4LJiY_exPxhlkd3zQ3B-15" edge="1">
          <mxGeometry width="50" height="50" relative="1" as="geometry">
            <mxPoint x="394.38" y="420" as="sourcePoint" />
            <mxPoint x="394.38" y="505" as="targetPoint" />
          </mxGeometry>
        </mxCell>
        <mxCell id="P4LJiY_exPxhlkd3zQ3B-15" value="&lt;font face=&quot;Verdana&quot;&gt;&lt;span style=&quot;font-size: 14px;&quot;&gt;&lt;b&gt;KEYWORD&lt;br&gt;SIMILARITY&lt;br&gt;&lt;/b&gt;&lt;/span&gt;&lt;/font&gt;" style="rounded=1;whiteSpace=wrap;html=1;" parent="1" vertex="1">
          <mxGeometry x="320" y="510" width="150" height="70" as="geometry" />
        </mxCell>
        <mxCell id="P4LJiY_exPxhlkd3zQ3B-16" value="&lt;font style=&quot;font-size: 14px;&quot; face=&quot;Verdana&quot;&gt;&lt;b&gt;SAMPLE&amp;nbsp;&lt;br&gt;ANSWER&lt;br&gt;SHEET&lt;/b&gt;&lt;/font&gt;" style="shape=parallelogram;perimeter=parallelogramPerimeter;whiteSpace=wrap;html=1;fixedSize=1;" parent="1" vertex="1">
          <mxGeometry x="70" y="490" width="150" height="110" as="geometry" />
        </mxCell>
        <mxCell id="P4LJiY_exPxhlkd3zQ3B-17" value="" style="endArrow=classic;html=1;rounded=0;exitX=1;exitY=0.5;exitDx=0;exitDy=0;entryX=0;entryY=0.5;entryDx=0;entryDy=0;" parent="1" source="P4LJiY_exPxhlkd3zQ3B-16" target="P4LJiY_exPxhlkd3zQ3B-15" edge="1">
          <mxGeometry width="50" height="50" relative="1" as="geometry">
            <mxPoint x="230" y="560" as="sourcePoint" />
            <mxPoint x="280" y="510" as="targetPoint" />
          </mxGeometry>
        </mxCell>
        <mxCell id="P4LJiY_exPxhlkd3zQ3B-18" value="" style="endArrow=classic;html=1;rounded=0;exitX=0.5;exitY=1;exitDx=0;exitDy=0;entryX=0.5;entryY=0;entryDx=0;entryDy=0;" parent="1" edge="1">
          <mxGeometry width="50" height="50" relative="1" as="geometry">
            <mxPoint x="394.37" y="580" as="sourcePoint" />
            <mxPoint x="394.99" y="670" as="targetPoint" />
          </mxGeometry>
        </mxCell>
        <mxCell id="P4LJiY_exPxhlkd3zQ3B-19" value="&lt;font face=&quot;Verdana&quot;&gt;&lt;span style=&quot;font-size: 14px;&quot;&gt;&lt;b&gt;&lt;br&gt;SEMANTIC ANALYSIS&lt;br&gt;&lt;br&gt;&lt;/b&gt;&lt;/span&gt;&lt;/font&gt;" style="rounded=1;whiteSpace=wrap;html=1;" parent="1" vertex="1">
          <mxGeometry x="320" y="670" width="150" height="70" as="geometry" />
        </mxCell>
        <mxCell id="P4LJiY_exPxhlkd3zQ3B-20" value="" style="endArrow=classic;html=1;rounded=0;exitX=0.5;exitY=1;exitDx=0;exitDy=0;entryX=0.5;entryY=1;entryDx=0;entryDy=0;" parent="1" source="P4LJiY_exPxhlkd3zQ3B-19" target="P4LJiY_exPxhlkd3zQ3B-21" edge="1">
          <mxGeometry width="50" height="50" relative="1" as="geometry">
            <mxPoint x="400" y="790" as="sourcePoint" />
            <mxPoint x="680" y="740" as="targetPoint" />
            <Array as="points">
              <mxPoint x="395" y="840" />
              <mxPoint x="675" y="840" />
            </Array>
          </mxGeometry>
        </mxCell>
        <mxCell id="P4LJiY_exPxhlkd3zQ3B-21" value="&lt;font face=&quot;Verdana&quot;&gt;&lt;span style=&quot;font-size: 14px;&quot;&gt;&lt;b&gt;RESULT&lt;br&gt;GENERATION&lt;br&gt;&lt;/b&gt;&lt;/span&gt;&lt;/font&gt;" style="rounded=1;whiteSpace=wrap;html=1;" parent="1" vertex="1">
          <mxGeometry x="600" y="670" width="150" height="70" as="geometry" />
        </mxCell>
        <mxCell id="P4LJiY_exPxhlkd3zQ3B-22" value="" style="endArrow=classic;html=1;rounded=0;exitX=0.5;exitY=0;exitDx=0;exitDy=0;" parent="1" edge="1">
          <mxGeometry width="50" height="50" relative="1" as="geometry">
            <mxPoint x="674.55" y="670" as="sourcePoint" />
            <mxPoint x="674.55" y="580" as="targetPoint" />
            <Array as="points">
              <mxPoint x="674.55" y="620" />
            </Array>
          </mxGeometry>
        </mxCell>
        <mxCell id="P4LJiY_exPxhlkd3zQ3B-23" value="&lt;font style=&quot;font-size: 14px;&quot; face=&quot;Verdana&quot;&gt;&lt;b&gt;DISPLAY&amp;nbsp;&lt;br&gt;RESULT&lt;/b&gt;&lt;/font&gt;" style="ellipse;whiteSpace=wrap;html=1;" parent="1" vertex="1">
          <mxGeometry x="615" y="500" width="120" height="80" as="geometry" />
        </mxCell>
        <mxCell id="P4LJiY_exPxhlkd3zQ3B-25" value="" style="endArrow=classic;html=1;rounded=0;entryX=0.5;entryY=0;entryDx=0;entryDy=0;exitX=0.5;exitY=1;exitDx=0;exitDy=0;" parent="1" source="P4LJiY_exPxhlkd3zQ3B-7" target="P4LJiY_exPxhlkd3zQ3B-23" edge="1">
          <mxGeometry width="50" height="50" relative="1" as="geometry">
            <mxPoint x="520" y="530" as="sourcePoint" />
            <mxPoint x="570" y="480" as="targetPoint" />
          </mxGeometry>
        </mxCell>
        <mxCell id="P4LJiY_exPxhlkd3zQ3B-26" value="&lt;font face=&quot;Verdana&quot; style=&quot;font-size: 24px;&quot;&gt;&lt;b style=&quot;&quot;&gt;SYSTEM ARCHITECTURE DIAGRAM&lt;/b&gt;&lt;/font&gt;" style="text;html=1;align=center;verticalAlign=middle;resizable=0;points=[];autosize=1;strokeColor=none;fillColor=none;" parent="1" vertex="1">
          <mxGeometry x="150" y="880" width="490" height="40" as="geometry" />
        </mxCell>
      </root>
    </mxGraphModel>
  </diagram>
</mxfile>
